<?xml version="1.0" standalone="no"?>
<!DOCTYPE svg PUBLIC "-//W3C//DTD SVG 20010904//EN"
 "http://www.w3.org/TR/2001/REC-SVG-20010904/DTD/svg10.dtd">
<svg version="1.0" xmlns="http://www.w3.org/2000/svg"
 width="526.000000pt" height="526.000000pt" viewBox="0 0 526.000000 526.000000"
 preserveAspectRatio="xMidYMid meet">
<metadata>
Created by potrace 1.14, written by Peter Selinger 2001-2017
</metadata>
<g transform="translate(0.000000,526.000000) scale(0.100000,-0.100000)"
fill="#000000" stroke="none">
<path d="M2475 5244 c-297 -28 -444 -57 -669 -131 -194 -64 -442 -183 -606
-290 -602 -396 -1015 -1017 -1145 -1723 -29 -161 -39 -273 -39 -470 0 -436 85
-796 280 -1180 398 -787 1138 -1304 2034 -1422 122 -16 478 -16 600 0 503 66
958 257 1338 561 486 388 823 953 937 1571 47 255 53 594 16 839 -44 292 -127
551 -256 806 -135 268 -281 471 -485 675 -209 209 -417 358 -695 495 -259 128
-498 203 -785 245 -128 19 -434 33 -525 24z m490 -934 c691 -148 1196 -654
1347 -1350 19 -92 22 -133 22 -330 0 -196 -3 -238 -22 -330 -151 -699 -653
-1201 -1352 -1352 -92 -19 -134 -22 -330 -22 -196 0 -238 3 -330 22 -699 151
-1201 653 -1352 1352 -19 92 -22 134 -22 330 0 196 3 238 22 329 68 313 199
577 400 806 257 294 625 494 1031 560 131 22 455 13 586 -15z"/>
<path d="M1880 3595 l0 -175 555 0 c305 0 555 -2 555 -5 0 -3 -33 -60 -74
-128 -228 -380 -455 -838 -626 -1267 -68 -171 -180 -475 -180 -490 0 -7 76 -9
226 -8 l226 3 82 240 c197 574 447 1127 707 1561 l49 82 0 181 0 181 -760 0
-760 0 0 -175z"/>
</g>
</svg>
