<?xml version="1.0" standalone="no"?>
<!DOCTYPE svg PUBLIC "-//W3C//DTD SVG 20010904//EN"
 "http://www.w3.org/TR/2001/REC-SVG-20010904/DTD/svg10.dtd">
<svg version="1.0" xmlns="http://www.w3.org/2000/svg"
 width="475.000000pt" height="475.000000pt" viewBox="0 0 475.000000 475.000000"
 preserveAspectRatio="xMidYMid meet">
<metadata>
Created by potrace 1.11, written by Peter Selinger 2001-2013
</metadata>
<g transform="translate(0.000000,475.000000) scale(0.100000,-0.100000)"
fill="#000000" stroke="none">
<path d="M2090 4689 c-268 -30 -572 -124 -810 -251 -218 -115 -378 -235 -561
-417 -355 -355 -567 -767 -656 -1276 -25 -145 -25 -586 0 -737 42 -251 105
-446 218 -675 289 -587 811 -1024 1442 -1207 318 -92 707 -113 1047 -55 348
59 707 215 998 433 504 378 838 953 917 1576 23 179 16 533 -13 690 -93 495
-302 898 -642 1241 -187 188 -346 306 -572 424 -265 137 -510 214 -808 251
-124 15 -435 17 -560 3z m567 -709 c869 -149 1459 -966 1332 -1845 -73 -500
-387 -950 -836 -1198 -460 -253 -1008 -271 -1481 -47 -332 158 -597 417 -762
745 -229 458 -235 992 -15 1451 152 315 444 608 761 760 307 147 652 193 1001
134z"/>
<path d="M2127 3945 c-556 -90 -1009 -442 -1223 -949 -148 -351 -164 -767 -43
-1131 180 -539 625 -934 1193 -1057 86 -19 132 -22 311 -22 179 0 225 3 312
22 329 72 580 208 814 441 297 298 451 647 466 1062 11 310 -55 593 -198 844
-228 401 -617 681 -1077 776 -130 27 -429 34 -555 14z m539 -229 c275 -69 493
-194 687 -396 190 -197 304 -408 363 -675 24 -108 29 -360 10 -475 -99 -603
-553 -1057 -1156 -1156 -116 -19 -366 -13 -480 11 -497 108 -895 478 -1035
961 -105 362 -57 765 127 1079 213 361 563 603 973 671 129 22 386 12 511 -20z"/>
<path d="M1930 2900 l0 -120 291 0 291 0 -36 -47 c-191 -252 -337 -633 -362
-945 l-7 -88 125 0 125 0 6 98 c11 198 76 433 176 637 64 130 155 273 220 347
l41 46 0 96 0 96 -435 0 -435 0 0 -120z"/>
</g>
</svg>
